<mxfile host="app.diagrams.net" modified="2024-03-20T02:31:50.163Z" agent="Mozilla/5.0 (Macintosh; Intel Mac OS X 10_15_7) AppleWebKit/537.36 (KHTML, like Gecko) Chrome/122.0.0.0 Safari/537.36" etag="_Ic_tgXVBl-TRp3a_TMr" version="24.0.7" type="github">
  <diagram name="第 1 页" id="8hdI1RxU2GNVSwNqD7Qy">
    <mxGraphModel dx="2074" dy="1146" grid="1" gridSize="10" guides="1" tooltips="1" connect="1" arrows="1" fold="1" page="1" pageScale="1" pageWidth="827" pageHeight="1169" math="0" shadow="0">
      <root>
        <mxCell id="0" />
        <mxCell id="1" parent="0" />
        <mxCell id="T9PoJ31ExsMRAWUuvWu4-1" style="edgeStyle=orthogonalEdgeStyle;rounded=0;orthogonalLoop=1;jettySize=auto;html=1;exitX=0.5;exitY=1;exitDx=0;exitDy=0;endArrow=none;endFill=0;entryX=0.5;entryY=0;entryDx=0;entryDy=0;" edge="1" parent="1" source="T9PoJ31ExsMRAWUuvWu4-2" target="T9PoJ31ExsMRAWUuvWu4-12">
          <mxGeometry relative="1" as="geometry" />
        </mxCell>
        <mxCell id="T9PoJ31ExsMRAWUuvWu4-2" value="开始" style="rounded=1;whiteSpace=wrap;html=1;" vertex="1" parent="1">
          <mxGeometry x="655" y="330" width="60" height="30" as="geometry" />
        </mxCell>
        <mxCell id="T9PoJ31ExsMRAWUuvWu4-3" value="" style="edgeStyle=orthogonalEdgeStyle;rounded=0;orthogonalLoop=1;jettySize=auto;html=1;" edge="1" parent="1" source="T9PoJ31ExsMRAWUuvWu4-4" target="T9PoJ31ExsMRAWUuvWu4-7">
          <mxGeometry relative="1" as="geometry" />
        </mxCell>
        <mxCell id="T9PoJ31ExsMRAWUuvWu4-4" value="前端请求接口，携带Token" style="rounded=0;whiteSpace=wrap;html=1;" vertex="1" parent="1">
          <mxGeometry x="630" y="460" width="110" height="40" as="geometry" />
        </mxCell>
        <mxCell id="T9PoJ31ExsMRAWUuvWu4-5" value="" style="edgeStyle=orthogonalEdgeStyle;rounded=0;orthogonalLoop=1;jettySize=auto;html=1;" edge="1" parent="1" source="T9PoJ31ExsMRAWUuvWu4-7" target="T9PoJ31ExsMRAWUuvWu4-17">
          <mxGeometry relative="1" as="geometry" />
        </mxCell>
        <mxCell id="T9PoJ31ExsMRAWUuvWu4-6" style="edgeStyle=orthogonalEdgeStyle;rounded=0;orthogonalLoop=1;jettySize=auto;html=1;exitX=0;exitY=0.5;exitDx=0;exitDy=0;entryX=1;entryY=0.25;entryDx=0;entryDy=0;" edge="1" parent="1" source="T9PoJ31ExsMRAWUuvWu4-7" target="T9PoJ31ExsMRAWUuvWu4-9">
          <mxGeometry relative="1" as="geometry" />
        </mxCell>
        <mxCell id="T9PoJ31ExsMRAWUuvWu4-7" value="后端校验Token" style="rounded=0;whiteSpace=wrap;html=1;" vertex="1" parent="1">
          <mxGeometry x="630" y="530" width="110" height="40" as="geometry" />
        </mxCell>
        <mxCell id="T9PoJ31ExsMRAWUuvWu4-8" style="edgeStyle=orthogonalEdgeStyle;rounded=0;orthogonalLoop=1;jettySize=auto;html=1;exitX=0.5;exitY=0;exitDx=0;exitDy=0;" edge="1" parent="1" source="T9PoJ31ExsMRAWUuvWu4-9" target="T9PoJ31ExsMRAWUuvWu4-14">
          <mxGeometry relative="1" as="geometry" />
        </mxCell>
        <mxCell id="T9PoJ31ExsMRAWUuvWu4-9" value="返回前端Token无效" style="rounded=0;whiteSpace=wrap;html=1;" vertex="1" parent="1">
          <mxGeometry x="450" y="590" width="110" height="40" as="geometry" />
        </mxCell>
        <mxCell id="T9PoJ31ExsMRAWUuvWu4-10" style="edgeStyle=orthogonalEdgeStyle;rounded=0;orthogonalLoop=1;jettySize=auto;html=1;exitX=0.5;exitY=1;exitDx=0;exitDy=0;" edge="1" parent="1" source="T9PoJ31ExsMRAWUuvWu4-12" target="T9PoJ31ExsMRAWUuvWu4-4">
          <mxGeometry relative="1" as="geometry" />
        </mxCell>
        <mxCell id="T9PoJ31ExsMRAWUuvWu4-11" value="" style="edgeStyle=orthogonalEdgeStyle;rounded=0;orthogonalLoop=1;jettySize=auto;html=1;" edge="1" parent="1" source="T9PoJ31ExsMRAWUuvWu4-12" target="T9PoJ31ExsMRAWUuvWu4-14">
          <mxGeometry relative="1" as="geometry" />
        </mxCell>
        <mxCell id="T9PoJ31ExsMRAWUuvWu4-12" value="前端验证token是否存在" style="rounded=0;whiteSpace=wrap;html=1;" vertex="1" parent="1">
          <mxGeometry x="630" y="390" width="110" height="40" as="geometry" />
        </mxCell>
        <mxCell id="T9PoJ31ExsMRAWUuvWu4-13" style="edgeStyle=orthogonalEdgeStyle;rounded=0;orthogonalLoop=1;jettySize=auto;html=1;exitX=0;exitY=0.5;exitDx=0;exitDy=0;entryX=0;entryY=0.5;entryDx=0;entryDy=0;" edge="1" parent="1" source="T9PoJ31ExsMRAWUuvWu4-14" target="T9PoJ31ExsMRAWUuvWu4-20">
          <mxGeometry relative="1" as="geometry" />
        </mxCell>
        <mxCell id="T9PoJ31ExsMRAWUuvWu4-14" value="跳转到登录界面" style="rounded=0;whiteSpace=wrap;html=1;" vertex="1" parent="1">
          <mxGeometry x="450" y="390" width="110" height="40" as="geometry" />
        </mxCell>
        <mxCell id="T9PoJ31ExsMRAWUuvWu4-15" style="edgeStyle=orthogonalEdgeStyle;rounded=0;orthogonalLoop=1;jettySize=auto;html=1;exitX=0;exitY=0.5;exitDx=0;exitDy=0;entryX=1;entryY=0.5;entryDx=0;entryDy=0;" edge="1" parent="1" source="T9PoJ31ExsMRAWUuvWu4-17" target="T9PoJ31ExsMRAWUuvWu4-9">
          <mxGeometry relative="1" as="geometry" />
        </mxCell>
        <mxCell id="T9PoJ31ExsMRAWUuvWu4-16" value="" style="edgeStyle=orthogonalEdgeStyle;rounded=0;orthogonalLoop=1;jettySize=auto;html=1;" edge="1" parent="1" source="T9PoJ31ExsMRAWUuvWu4-17" target="T9PoJ31ExsMRAWUuvWu4-19">
          <mxGeometry relative="1" as="geometry" />
        </mxCell>
        <mxCell id="T9PoJ31ExsMRAWUuvWu4-17" value="校验Token的expiresIn是否过期" style="rounded=0;whiteSpace=wrap;html=1;" vertex="1" parent="1">
          <mxGeometry x="630" y="630" width="110" height="40" as="geometry" />
        </mxCell>
        <mxCell id="T9PoJ31ExsMRAWUuvWu4-18" value="" style="edgeStyle=orthogonalEdgeStyle;rounded=0;orthogonalLoop=1;jettySize=auto;html=1;endArrow=none;endFill=0;entryX=0.5;entryY=0;entryDx=0;entryDy=0;" edge="1" parent="1" source="T9PoJ31ExsMRAWUuvWu4-19" target="T9PoJ31ExsMRAWUuvWu4-20">
          <mxGeometry relative="1" as="geometry">
            <mxPoint x="685" y="840" as="targetPoint" />
          </mxGeometry>
        </mxCell>
        <mxCell id="T9PoJ31ExsMRAWUuvWu4-19" value="返回数据" style="rounded=0;whiteSpace=wrap;html=1;" vertex="1" parent="1">
          <mxGeometry x="630" y="720" width="110" height="40" as="geometry" />
        </mxCell>
        <mxCell id="T9PoJ31ExsMRAWUuvWu4-20" value="结束" style="rounded=1;whiteSpace=wrap;html=1;" vertex="1" parent="1">
          <mxGeometry x="655" y="798" width="60" height="30" as="geometry" />
        </mxCell>
        <mxCell id="T9PoJ31ExsMRAWUuvWu4-21" value="未通过" style="text;html=1;align=center;verticalAlign=middle;resizable=0;points=[];autosize=1;strokeColor=none;fillColor=none;" vertex="1" parent="1">
          <mxGeometry x="570" y="518" width="60" height="30" as="geometry" />
        </mxCell>
        <mxCell id="T9PoJ31ExsMRAWUuvWu4-22" value="通过" style="text;html=1;align=center;verticalAlign=middle;resizable=0;points=[];autosize=1;strokeColor=none;fillColor=none;" vertex="1" parent="1">
          <mxGeometry x="690" y="585" width="50" height="30" as="geometry" />
        </mxCell>
        <mxCell id="T9PoJ31ExsMRAWUuvWu4-23" value="未过期" style="text;html=1;align=center;verticalAlign=middle;resizable=0;points=[];autosize=1;strokeColor=none;fillColor=none;" vertex="1" parent="1">
          <mxGeometry x="685" y="678" width="60" height="30" as="geometry" />
        </mxCell>
        <mxCell id="T9PoJ31ExsMRAWUuvWu4-24" value="过期" style="text;html=1;align=center;verticalAlign=middle;resizable=0;points=[];autosize=1;strokeColor=none;fillColor=none;" vertex="1" parent="1">
          <mxGeometry x="575" y="660" width="50" height="30" as="geometry" />
        </mxCell>
        <mxCell id="T9PoJ31ExsMRAWUuvWu4-25" value="不存在" style="text;html=1;align=center;verticalAlign=middle;resizable=0;points=[];autosize=1;strokeColor=none;fillColor=none;" vertex="1" parent="1">
          <mxGeometry x="565" y="380" width="60" height="30" as="geometry" />
        </mxCell>
        <mxCell id="T9PoJ31ExsMRAWUuvWu4-26" value="存在" style="text;html=1;align=center;verticalAlign=middle;resizable=0;points=[];autosize=1;strokeColor=none;fillColor=none;" vertex="1" parent="1">
          <mxGeometry x="685" y="430" width="50" height="30" as="geometry" />
        </mxCell>
      </root>
    </mxGraphModel>
  </diagram>
</mxfile>
